<?xml version="1.0" encoding="UTF-8" standalone="no"?>
<!-- Created with Inkscape (http://www.inkscape.org/) -->

<svg
   xmlns:dc="http://purl.org/dc/elements/1.1/"
   xmlns:cc="http://creativecommons.org/ns#"
   xmlns:rdf="http://www.w3.org/1999/02/22-rdf-syntax-ns#"
   xmlns:svg="http://www.w3.org/2000/svg"
   xmlns="http://www.w3.org/2000/svg"
   xmlns:sodipodi="http://sodipodi.sourceforge.net/DTD/sodipodi-0.dtd"
   xmlns:inkscape="http://www.inkscape.org/namespaces/inkscape"
   width="256"
   height="256"
   viewBox="0 0 67.733335 67.73333"
   version="1.1"
   id="svg8"
   inkscape:export-filename="C:\Users\mo3er\bitmap1.png"
   inkscape:export-xdpi="96"
   inkscape:export-ydpi="96"
   inkscape:version="0.92.3 (2405546, 2018-03-11)"
   sodipodi:docname="moving_moutains.svg">
  <sodipodi:namedview
     id="base"
     pagecolor="#ffffff"
     bordercolor="#666666"
     borderopacity="1.0"
     inkscape:pageopacity="0.0"
     inkscape:pageshadow="2"
     inkscape:zoom="7.9195959"
     inkscape:cx="133.77276"
     inkscape:cy="79.324559"
     inkscape:document-units="px"
     inkscape:current-layer="layer1"
     showgrid="false"
     units="px"
     inkscape:pagecheckerboard="true"
     inkscape:window-width="3200"
     inkscape:window-height="1675"
     inkscape:window-x="-13"
     inkscape:window-y="2291"
     inkscape:window-maximized="1"
     inkscape:snap-to-guides="true"
     inkscape:snap-global="true" />
  <defs
     id="defs2" />
  <metadata
     id="metadata5">
    <rdf:RDF>
      <cc:Work
         rdf:about="">
        <dc:format>image/svg+xml</dc:format>
        <dc:type
           rdf:resource="http://purl.org/dc/dcmitype/StillImage" />
        <dc:title />
      </cc:Work>
    </rdf:RDF>
  </metadata>
  <g
     transform="translate(0,-229.26667)"
     id="layer1"
     inkscape:groupmode="layer"
     inkscape:label="Layer 1">
    <rect
       style="stroke-width:0.26458332;fill-opacity:1;fill:#00009b"
       y="229.26668"
       x="0"
       height="67.73333"
       width="67.73333"
       id="rect3805" />
    <path
       id="path5003"
       title="t exp(-t*t)"
       d="m -2.5114874,302.07274 c 0.080862,-0.003 0.4174899,-35.0852 0.4983317,-35.08825 0.080862,-0.003 0.1616438,-0.006 0.2424657,-0.009 0.080862,-0.003 0.1616437,-0.007 0.2424756,-0.01 0.080862,-0.003 0.1616537,-0.007 0.2424756,-0.0103 0.080862,-0.004 0.1616537,-0.007 0.2424756,-0.0107 0.0808618,-0.004 0.16165372,-0.007 0.2424756,-0.0112 0.0808618,-0.004 0.16164371,-0.008 0.24247556,-0.0117 0.0808618,-0.004 0.16164375,-0.008 0.24247559,-0.0123 0.0808618,-0.004 0.16164375,-0.009 0.24248557,-0.0128 0.08086176,-0.004 0.16164375,-0.009 0.24246563,-0.0134 0.0808618,-0.005 0.16164377,-0.009 0.24247562,-0.014 0.0808617,-0.005 0.16165372,-0.01 0.24246562,-0.0146 0.0808618,-0.005 0.16167363,-0.01 0.24248553,-0.0152 0.0808617,-0.005 0.16164368,-0.0104 0.24248548,-0.0158 0.080862,-0.005 0.1616538,-0.0109 0.2424657,-0.0165 0.080862,-0.006 0.1616438,-0.0113 0.2424756,-0.0172 0.080862,-0.006 0.1616637,-0.0118 0.2424756,-0.0179 0.080862,-0.006 0.1616538,-0.0123 0.2424756,-0.0186 0.080862,-0.006 0.1616537,-0.0128 0.2424756,-0.0194 0.080862,-0.007 0.1616438,-0.0133 0.2424856,-0.0201 0.080862,-0.007 0.1616537,-0.0138 0.2424656,-0.0209 0.080862,-0.007 0.1616438,-0.0143 0.2424756,-0.0217 0.080862,-0.007 0.1616637,-0.0149 0.2424756,-0.0226 0.080862,-0.008 0.1616438,-0.0155 0.2424756,-0.0234 0.080862,-0.008 0.1616637,-0.0161 0.2424956,-0.0243 0.080862,-0.008 0.1616437,-0.0167 0.2424556,-0.0252 0.080862,-0.009 0.1616537,-0.0173 0.2424955,-0.0262 0.080862,-0.009 0.1616438,-0.0179 0.2424657,-0.0271 0.080862,-0.009 0.1616537,-0.0186 0.2424756,-0.0281 0.080862,-0.01 0.1616537,-0.0192 0.2424656,-0.0291 0.080862,-0.01 0.1616637,-0.0199 0.2424856,-0.0301 0.080862,-0.0102 0.1616537,-0.0206 0.2424656,-0.0311 0.080862,-0.0106 0.1616537,-0.0213 0.2424955,-0.0322 0.080862,-0.0109 0.1616438,-0.022 0.2424557,-0.0333 0.080862,-0.0113 0.1616537,-0.0227 0.2424856,-0.0344 0.080862,-0.0117 0.1616537,-0.0235 0.2424756,-0.0355 0.080862,-0.012 0.1616537,-0.0242 0.2424756,-0.0367 0.080862,-0.0124 0.1616437,-0.025 0.2424855,-0.0378 0.080862,-0.0128 0.1616438,-0.0258 0.2424656,-0.039 0.080862,-0.0132 0.1616538,-0.0266 0.2424856,-0.0402 0.080862,-0.0136 0.1616438,-0.0274 0.2424656,-0.0414 0.080862,-0.014 0.1616538,-0.0282 0.2424756,-0.0427 0.080862,-0.0144 0.1616438,-0.0291 0.2424756,-0.0439 0.080862,-0.0149 0.1616538,-0.0299 0.2424856,-0.0452 0.080862,-0.0153 0.1616438,-0.0308 0.2424656,-0.0465 0.080862,-0.0157 0.1616438,-0.0317 0.2424856,-0.0478 0.080862,-0.0162 0.1616437,-0.0326 0.2424557,-0.0492 0.080862,-0.0166 0.1616632,-0.0335 0.2424851,-0.0505 0.080862,-0.0171 0.1616537,-0.0344 0.2424756,-0.0519 0.080862,-0.0175 0.1616644,-0.0353 0.2424763,-0.0532 0.080862,-0.018 0.1616441,-0.0362 0.2424851,-0.0546 0.08086,-0.0184 0.161644,-0.0371 0.242476,-0.056 0.08086,-0.0189 0.161644,-0.038 0.242466,-0.0574 0.08086,-0.0194 0.161653,-0.039 0.242485,-0.0588 0.08086,-0.0198 0.161644,-0.0399 0.242476,-0.0602 0.08086,-0.0203 0.161654,-0.0408 0.242466,-0.0616 0.08086,-0.0208 0.161643,-0.0418 0.242485,-0.0631 0.08086,-0.0213 0.161644,-0.0427 0.242466,-0.0645 0.08086,-0.0217 0.161643,-0.0437 0.242485,-0.0659 0.08086,-0.0222 0.161644,-0.0446 0.242476,-0.0673 0.08086,-0.0227 0.161644,-0.0456 0.242465,-0.0687 0.08086,-0.0231 0.161654,-0.0465 0.242486,-0.0701 0.08086,-0.0236 0.161654,-0.0475 0.242476,-0.0716 0.08086,-0.0241 0.161643,-0.0484 0.242475,-0.073 0.08086,-0.0245 0.161654,-0.0493 0.242476,-0.0744 0.08086,-0.025 0.161644,-0.0503 0.242465,-0.0757 0.08086,-0.0255 0.161674,-0.0512 0.242476,-0.0771 0.08086,-0.0259 0.161654,-0.0521 0.242486,-0.0785 0.08086,-0.0264 0.161663,-0.053 0.242465,-0.0798 0.08086,-0.0268 0.161654,-0.0539 0.242486,-0.0811 0.08086,-0.0273 0.161654,-0.0547 0.242475,-0.0824 0.08086,-0.0277 0.161644,-0.0556 0.242476,-0.0837 0.08086,-0.0281 0.161654,-0.0564 0.242476,-0.0849 0.08086,-0.0285 0.161663,-0.0572 0.242465,-0.0862 0.08086,-0.0289 0.161674,-0.058 0.242496,-0.0874 0.08086,-0.0293 0.161644,-0.0588 0.242465,-0.0885 0.08086,-0.0297 0.161654,-0.0596 0.242476,-0.0897 0.08086,-0.0301 0.161654,-0.0603 0.242476,-0.0908 0.08086,-0.0304 0.161653,-0.061 0.242485,-0.0918 0.08086,-0.0308 0.161654,-0.0617 0.242466,-0.0928 0.08086,-0.0311 0.161644,-0.0624 0.242485,-0.0938 0.08086,-0.0314 0.161644,-0.063 0.242456,-0.0947 0.08086,-0.0317 0.161664,-0.0636 0.242486,-0.0956 0.08086,-0.032 0.161653,-0.0642 0.242475,-0.0965 0.08086,-0.0323 0.161654,-0.0647 0.242476,-0.0973 0.08086,-0.0326 0.161654,-0.0652 0.242485,-0.098 0.08086,-0.0328 0.161654,-0.0657 0.242476,-0.0987 0.08086,-0.033 0.161654,-0.0661 0.242476,-0.0993 0.08086,-0.0332 0.161643,-0.0665 0.242465,-0.0999 0.08086,-0.0334 0.161654,-0.0669 0.242496,-0.10041 0.08086,-0.0335 0.161643,-0.0672 0.242455,-0.10086 0.08086,-0.0337 0.161654,-0.0675 0.242486,-0.10126 0.08086,-0.0338 0.161654,-0.0677 0.242466,-0.10157 0.08086,-0.0339 0.161653,-0.0679 0.242485,-0.10183 0.08086,-0.034 0.161644,-0.068 0.242466,-0.10202 0.08086,-0.034 0.161653,-0.0681 0.242485,-0.10214 0.08086,-0.0341 0.161644,-0.0681 0.242466,-0.10218 0.08086,-0.0341 0.161654,-0.0681 0.242496,-0.10216 0.08086,-0.034 0.161643,-0.0681 0.242465,-0.10206 0.08086,-0.034 0.161644,-0.068 0.242476,-0.10188 0.08086,-0.0339 0.161653,-0.0678 0.242475,-0.10162 0.08086,-0.0338 0.161654,-0.0676 0.242476,-0.10131 0.08086,-0.0337 0.161644,-0.0673 0.242485,-0.10089 0.08086,-0.0335 0.161644,-0.067 0.242466,-0.10039 0.08086,-0.0334 0.161644,-0.0666 0.242476,-0.0998 0.08086,-0.0332 0.161653,-0.0662 0.242475,-0.0992 0.08086,-0.0329 0.161654,-0.0658 0.242476,-0.0984 0.08086,-0.0327 0.161644,-0.0652 0.242476,-0.0976 0.08086,-0.0324 0.161643,-0.0647 0.242475,-0.0967 0.08086,-0.0321 0.161654,-0.064 0.242476,-0.0958 0.08086,-0.0317 0.161663,-0.0633 0.242475,-0.0947 0.08086,-0.0314 0.161654,-0.0625 0.242476,-0.0935 0.08086,-0.031 0.161654,-0.0618 0.242476,-0.0923 0.08086,-0.0306 0.161643,-0.0609 0.242485,-0.091 0.08086,-0.0301 0.161654,-0.06 0.242466,-0.0896 0.08086,-0.0296 0.161643,-0.059 0.242475,-0.0881 0.08086,-0.0291 0.161664,-0.058 0.242476,-0.0866 0.08086,-0.0286 0.161654,-0.0569 0.242475,-0.0849 0.08086,-0.028 0.161654,-0.0558 0.242476,-0.0832 0.08086,-0.0274 0.161654,-0.0546 0.242476,-0.0814 0.08086,-0.0268 0.161653,-0.0533 0.242475,-0.0795 0.08086,-0.0262 0.161644,-0.052 0.242486,-0.0776 0.08086,-0.0255 0.161654,-0.0507 0.242475,-0.0755 0.08086,-0.0248 0.161644,-0.0493 0.242466,-0.0734 0.08086,-0.0241 0.161654,-0.0479 0.242496,-0.0713 0.08086,-0.0234 0.161643,-0.0464 0.242455,-0.069 0.08086,-0.0226 0.161654,-0.0448 0.242486,-0.0667 0.08086,-0.0218 0.161654,-0.0433 0.242465,-0.0643 0.08086,-0.021 0.161664,-0.0417 0.242486,-0.0619 0.08086,-0.0202 0.161654,-0.04 0.242466,-0.0593 0.08086,-0.0194 0.161653,-0.0383 0.242485,-0.0568 0.08086,-0.0185 0.161644,-0.0365 0.242466,-0.0541 0.08086,-0.0176 0.161654,-0.0348 0.242485,-0.0514 0.08086,-0.0167 0.161654,-0.0329 0.242466,-0.0487 0.08086,-0.0158 0.161654,-0.0311 0.242486,-0.0459 0.08086,-0.0148 0.161653,-0.0292 0.242475,-0.0431 0.08086,-0.0139 0.161654,-0.0273 0.242476,-0.0402 0.08086,-0.0129 0.161644,-0.0254 0.242485,-0.0373 0.08086,-0.0119 0.161644,-0.0234 0.242456,-0.0343 0.08086,-0.0109 0.161654,-0.0214 0.242496,-0.0313 0.08086,-0.01 0.161643,-0.0194 0.242465,-0.0283 0.08086,-0.009 0.161654,-0.0173 0.242476,-0.0252 0.08086,-0.008 0.161644,-0.0153 0.242475,-0.0221 0.08086,-0.007 0.161654,-0.0132 0.242476,-0.019 0.08086,-0.006 0.161654,-0.0111 0.242466,-0.0159 0.08086,-0.005 0.161653,-0.009 0.242495,-0.0127 0.08086,-0.004 0.161644,-0.007 0.242456,-0.01 0.08086,-0.003 0.161664,-0.005 0.242485,-0.006 0.08086,-0.002 0.161654,-0.003 0.242486,-0.003 0.08086,-5.3e-4 0.161644,-5.3e-4 0.242466,0 0.08086,5.3e-4 0.161643,0.001 0.242485,0.003 0.08086,0.002 0.161644,0.004 0.242476,0.006 0.08086,0.003 0.161643,0.006 0.242465,0.01 0.08086,0.004 0.161654,0.008 0.242486,0.0127 0.08086,0.005 0.161644,0.0101 0.242466,0.0159 0.08086,0.006 0.161643,0.0122 0.242475,0.019 0.08086,0.007 0.161644,0.0142 0.242486,0.0221 0.08086,0.008 0.161643,0.0163 0.242465,0.0252 0.08086,0.009 0.161644,0.0183 0.242486,0.0283 0.08086,0.01 0.161644,0.0204 0.242476,0.0313 0.08086,0.0109 0.161653,0.0224 0.242465,0.0343 0.08086,0.0119 0.161644,0.0244 0.242486,0.0373 0.08086,0.0129 0.161653,0.0263 0.242465,0.0402 0.08086,0.0139 0.161654,0.0282 0.242486,0.0431 0.08086,0.0148 0.161654,0.0301 0.242476,0.0459 0.08086,0.0158 0.161643,0.032 0.242465,0.0487 0.08086,0.0167 0.161664,0.0339 0.242476,0.0514 0.08086,0.0176 0.161653,0.0357 0.242485,0.0541 0.08086,0.0185 0.161654,0.0374 0.242466,0.0568 0.08086,0.0193 0.161644,0.0391 0.242485,0.0593 0.08086,0.0202 0.161654,0.0408 0.242466,0.0619 0.08086,0.021 0.161674,0.0425 0.242476,0.0643 0.08086,0.0218 0.161663,0.0441 0.242495,0.0667 0.08086,0.0226 0.161644,0.0456 0.242456,0.069 0.08086,0.0234 0.161654,0.0471 0.242495,0.0713 0.08086,0.0241 0.161644,0.0486 0.242466,0.0734 0.08086,0.0248 0.161654,0.05 0.242476,0.0755 0.08086,0.0255 0.161653,0.0514 0.242475,0.0776 0.08086,0.0262 0.161654,0.0527 0.242476,0.0795 0.08086,0.0268 0.161654,0.054 0.242466,0.0814 0.08086,0.0274 0.161653,0.0552 0.242495,0.0832 0.08086,0.028 0.161644,0.0563 0.242456,0.0849 0.08086,0.0286 0.161653,0.0575 0.242485,0.0866 0.08086,0.0291 0.161654,0.0585 0.242486,0.0881 0.08086,0.0296 0.161644,0.0595 0.242465,0.0896 0.08086,0.0301 0.161654,0.0604 0.242486,0.091 0.08086,0.0306 0.161644,0.0613 0.242476,0.0923 0.08086,0.031 0.161643,0.0622 0.242475,0.0935 0.08086,0.0314 0.161644,0.0629 0.242466,0.0947 0.08086,0.0317 0.161654,0.0637 0.242475,0.0958 0.08086,0.0321 0.161654,0.0643 0.242476,0.0967 0.08086,0.0324 0.161654,0.065 0.242486,0.0976 0.08086,0.0327 0.161643,0.0655 0.242465,0.0984 0.08086,0.0329 0.161644,0.066 0.242486,0.0992 0.08086,0.0332 0.161644,0.0664 0.242465,0.0998 0.08086,0.0334 0.161654,0.0668 0.242476,0.10039 0.08086,0.0335 0.161654,0.0672 0.242486,0.10089 0.08086,0.0337 0.161653,0.0675 0.242465,0.10131 0.08086,0.0338 0.161654,0.0677 0.242486,0.10162 0.08086,0.0339 0.161644,0.0679 0.242475,0.10188 0.08086,0.034 0.161644,0.068 0.242476,0.10206 0.08086,0.034 0.161644,0.0681 0.242476,0.10216 0.08086,0.0341 0.161643,0.0681 0.242475,0.10218 0.08086,0.0341 0.161654,0.0681 0.242466,0.10214 0.08086,0.034 0.161654,0.068 0.242485,0.10202 0.08086,0.034 0.161644,0.0679 0.242466,0.10183 0.08086,0.0339 0.161654,0.0678 0.242486,0.10157 0.08086,0.0338 0.161643,0.0676 0.242475,0.10126 0.08086,0.0337 0.161664,0.0673 0.242466,0.10086 0.08086,0.0335 0.161654,0.067 0.242485,0.10041 0.08086,0.0334 0.161654,0.0667 0.242476,0.0999 0.08086,0.0332 0.161644,0.0663 0.242476,0.0993 0.08086,0.033 0.161653,0.0659 0.242475,0.0987 0.08086,0.0328 0.161644,0.0654 0.242476,0.098 0.08086,0.0326 0.161663,0.065 0.242475,0.0973 0.08086,0.0323 0.161644,0.0645 0.242476,0.0965 0.08086,0.032 0.161654,0.0639 0.242466,0.0956 0.08086,0.0317 0.161643,0.0633 0.242485,0.0947 0.08086,0.0314 0.161654,0.0627 0.242476,0.0938 0.08086,0.0311 0.161643,0.062 0.242475,0.0928 0.08086,0.0308 0.161654,0.0614 0.242486,0.0918 0.08086,0.0304 0.161644,0.0607 0.242466,0.0908 0.08086,0.0301 0.161653,0.06 0.242485,0.0897 0.08086,0.0297 0.161644,0.0592 0.242466,0.0885 0.08086,0.0293 0.161653,0.0584 0.242485,0.0874 0.08086,0.0289 0.161644,0.0576 0.242466,0.0862 0.08086,0.0285 0.161654,0.0568 0.242485,0.0849 0.08086,0.0281 0.161654,0.056 0.242456,0.0837 0.08086,0.0277 0.161664,0.0551 0.242496,0.0824 0.08086,0.0273 0.161643,0.0543 0.242465,0.0811 0.08086,0.0268 0.161654,0.0534 0.242486,0.0798 0.08086,0.0264 0.161644,0.0525 0.242466,0.0785 0.08086,0.0259 0.161653,0.0516 0.242475,0.0771 0.08086,0.0255 0.161664,0.0507 0.242486,0.0757 0.08086,0.025 0.161643,0.0498 0.242475,0.0744 0.08086,0.0246 0.161644,0.0489 0.242476,0.073 0.08086,0.0241 0.161644,0.0479 0.242475,0.0716 0.08086,0.0236 0.161644,0.047 0.242476,0.0701 0.08086,0.0232 0.161654,0.0461 0.242466,0.0687 0.08086,0.0227 0.161653,0.0451 0.242485,0.0673 0.08086,0.0222 0.161644,0.0442 0.242466,0.0659 0.08086,0.0217 0.161664,0.0432 0.242485,0.0645 0.08086,0.0213 0.161644,0.0423 0.242476,0.0631 0.08086,0.0208 0.161644,0.0413 0.242476,0.0616 0.08086,0.0203 0.161643,0.0404 0.242465,0.0602 0.08086,0.0198 0.161664,0.0394 0.242486,0.0588 0.08086,0.0194 0.161654,0.0385 0.242475,0.0574 0.08086,0.0189 0.161654,0.0376 0.242476,0.056 0.08086,0.0184 0.161644,0.0366 0.242486,0.0546 0.08086,0.018 0.161643,0.0357 0.242465,0.0532 0.08086,0.0175 0.161644,0.0348 0.242476,0.0519 0.08086,0.0171 0.161654,0.0339 0.242465,0.0505 0.08086,0.0166 0.161654,0.033 0.242486,0.0492 0.08086,0.0162 0.161654,0.0321 0.242476,0.0478 0.08086,0.0157 0.161643,0.0312 0.242475,0.0465 0.08086,0.0153 0.161644,0.0304 0.242476,0.0452 0.08086,0.0149 0.161644,0.0295 0.242475,0.0439 0.08086,0.0144 0.161654,0.0287 0.242476,0.0427 0.08086,0.014 0.161654,0.0278 0.242476,0.0414 0.08086,0.0136 0.161653,0.027 0.242475,0.0402 0.08086,0.0132 0.161664,0.0262 0.242476,0.039 0.08086,0.0128 0.161644,0.0254 0.242485,0.0378 0.08086,0.0124 0.161654,0.0246 0.242466,0.0367 0.08086,0.012 0.161644,0.0239 0.242476,0.0355 0.08086,0.0116 0.161653,0.0231 0.242475,0.0344 0.08086,0.0113 0.161654,0.0224 0.242476,0.0333 0.08086,0.0109 0.161654,0.0216 0.242475,0.0322 0.08086,0.0105 0.161644,0.0209 0.242476,0.0311 0.08086,0.0102 0.161664,0.0202 0.242476,0.0301 0.08086,0.01 0.161663,0.0195 0.242475,0.0291 0.08086,0.01 0.161664,0.0189 0.242486,0.0281 0.08086,0.009 0.161644,0.0182 0.242465,0.0271 0.08086,0.009 0.161654,0.0176 0.242496,0.0262 0.08086,0.009 0.161644,0.017 0.242456,0.0252 0.08086,0.008 0.161653,0.0164 0.242485,0.0243 0.08086,0.008 0.161654,0.0158 0.242466,0.0234 0.08086,0.008 0.161663,0.0152 0.242485,0.0226 0.08086,0.007 0.161644,0.0146 0.242466,0.0217 0.08086,0.007 0.161654,0.0141 0.242486,0.0209 0.08086,0.007 0.161643,0.0136 0.242465,0.0201 0.08086,0.007 0.161654,0.013 0.242496,0.0194 0.08086,0.006 0.161643,0.0125 0.242465,0.0186 0.08086,0.006 0.161644,0.0121 0.242476,0.0179 0.08086,0.006 0.161644,0.0116 0.242485,0.0172 0.08086,0.006 0.161644,0.0111 0.242466,0.0165 0.08086,0.005 0.161644,0.0107 0.242486,0.0158 0.08086,0.005 0.161643,0.0102 0.242465,0.0152 0.08086,0.005 0.161644,0.01 0.242476,0.0146 0.08086,0.005 0.161654,0.009 0.242476,0.014 0.08086,0.005 0.161653,0.009 0.242475,0.0134 0.08086,0.004 0.161644,0.009 0.242476,0.0128 0.08086,0.004 0.161643,0.008 0.242485,0.0123 0.08086,0.004 0.161644,0.008 0.242466,0.0117 0.08086,0.004 0.161644,0.008 0.242475,0.0112 0.08086,0.004 0.161654,0.007 0.242476,0.0107 0.08086,0.003 0.161664,0.007 0.242476,0.0103 0.08086,0.003 0.161643,0.007 0.242485,0.01 0.08086,0.003 0.161654,0.006 0.242466,0.009 0.08086,0.003 0.161644,35.17284 0.242475,35.17575"
       style="opacity:1;fill:#051937;fill-opacity:1;stroke:#a8eb12;stroke-width:0.2756449;stroke-opacity:0"
       inkscape:connector-curvature="0"
       sodipodi:nodetypes="cssssssssssssssssssssssssssssssssssssssssssssssssssssssssssssssssssssssssssssssssssssssssssssssssssssssssssssssssssssssssssssssssssssssssssssssssssssssssssssssssssssssssssssssssssssssssssssssssssssssssssssssssssssssssssssssssssssssssssssssssssssssssssssssssssssssssssssssssssssssssssssssssssssssssssc" />
  </g>
  <g
     inkscape:groupmode="layer"
     id="layer2"
     inkscape:label="hole">
    <rect
       transform="translate(0,-229.26667)"
       style="fill:#f9f9f9;stroke-width:0.25740129"
       y="238.52708"
       x="9.260417"
       height="49.212498"
       width="19.84375"
       id="rect3807" />
    <rect
       transform="translate(0,-229.26667)"
       style="fill:#f9f9f9;stroke-width:0.25740129"
       y="238.52708"
       x="38.629166"
       height="49.212498"
       width="19.84375"
       id="rect3807-3" />
  </g>
  <rect
     style="opacity:0;fill:#ff0000;fill-opacity:0.99215686;stroke:#a8eb12;stroke-width:0.26458332;stroke-opacity:0.39215686"
     id="rect4861"
     width="84.397812"
     height="52.160713"
     x="44.412205"
     y="-64.558334" />
</svg>
